<svg width="48" height="47" viewBox="0 0 48 47" fill="none" xmlns="http://www.w3.org/2000/svg">
<g clip-path="url(#clip0_204_2029)">
<path d="M23.0698 1.97595C18.1605 2.17478 13.437 3.90733 9.56353 6.93C5.69003 9.95267 2.86136 14.1134 1.47527 18.8271C0.0891813 23.5409 0.215401 28.5705 1.83618 33.2088C3.45696 37.8471 6.49077 41.8607 10.511 44.6852L11.0182 45.0417H36.9818L37.489 44.6852C56.5083 31.3842 46.3485 1.06925 23.0698 1.97595ZM12.3499 38.683C12.0718 38.4401 11.8009 38.1862 11.5372 37.9212C9.45345 35.8454 7.92235 33.2811 7.0834 30.462C6.24445 27.643 6.12433 24.6588 6.73399 21.7814C7.34365 18.9041 8.6637 16.225 10.5738 13.9885C12.484 11.7519 14.9235 10.0289 17.67 8.97653C20.4165 7.92416 23.3827 7.57586 26.2983 7.96337C29.2139 8.35088 31.9862 9.46189 34.3625 11.1951C36.7388 12.9284 38.6435 15.2288 39.9031 17.8866C41.1627 20.5445 41.7372 23.4753 41.5741 26.412L37.6731 24.7788C37.3833 13.162 22.3785 7.34962 14.3063 15.7705C11.7395 18.3436 10.298 21.8297 10.298 25.4642C10.298 29.0987 11.7395 32.5848 14.3063 35.158C14.5021 35.3538 14.7155 35.5496 14.927 35.7455L12.3499 38.683ZM24 29.375C23.2476 29.3784 22.5102 29.165 21.8759 28.7603C21.2415 28.3556 20.7372 27.7768 20.4232 27.0931C20.1091 26.4094 19.9987 25.6497 20.105 24.9048C20.2114 24.16 20.53 23.4615 21.0228 22.893C21.5156 22.3244 22.1618 21.9099 22.884 21.6989C23.6062 21.4879 24.3739 21.4894 25.0953 21.7031C25.8167 21.9169 26.4612 22.334 26.9518 22.9044C27.4424 23.4749 27.7584 24.1745 27.8618 24.9198L40.0936 30.0369L38.5876 33.654L26.3833 28.5466C25.7033 29.0805 24.8645 29.372 24 29.375Z" fill="#CA2020"/>
</g>
<defs>
<clipPath id="clip0_204_2029">
<rect width="47" height="47" fill="white" transform="translate(0.5)"/>
</clipPath>
</defs>
</svg>
