<svg width="48" height="47" viewBox="0 0 48 47" fill="none" xmlns="http://www.w3.org/2000/svg">
<g clip-path="url(#clip0_204_2023)">
<path d="M39.5313 21.5417H33.7914C31.6275 21.5417 29.8748 19.789 29.8748 17.625V8.99658C27.0019 7.82354 23.7158 7.45929 20.273 8.27004C14.3745 9.6585 9.72155 14.5347 8.61313 20.492C6.75859 30.4658 14.3628 39.1667 23.9998 39.1667C32.6517 39.1667 39.6664 32.1519 39.6664 23.5C39.6664 22.8361 39.6116 22.184 39.5313 21.5417ZM30.7345 29.7569L22.0434 24.346V11.748H25.96V22.1762L32.8142 26.4355L30.7345 29.7569ZM47.4998 3.91667V13.7083C47.4998 15.8723 45.747 17.625 43.5831 17.625H33.7914V13.7083H40.9119C36.7485 6.51929 28.5392 2.58696 19.9558 4.32596C12.2028 5.89654 6.05359 12.2474 4.71213 20.0455C2.59517 32.3615 12.0676 43.0833 23.9978 43.0833C24.7576 43.0833 25.5253 43.0402 26.2832 42.9521L26.7336 46.8414C25.8269 46.9471 24.9065 47 23.9978 47C9.74113 47 -1.59175 34.2356 0.826797 19.5344C2.35234 10.2597 9.50417 2.62025 18.6809 0.5875C28.6449 -1.61954 38.3073 2.54388 43.5831 10.5221V3.91471H47.4998V3.91667ZM33.0473 40.8724L34.8607 44.3445C33.5975 45.0045 32.2698 45.5489 30.9127 45.966L29.7612 42.2217C30.8892 41.875 31.9956 41.4227 33.0473 40.8724ZM43.5831 23.5H47.4998C47.4998 24.9257 47.3705 26.3552 47.1159 27.7476L43.2639 27.0446C43.4754 25.8813 43.5831 24.6907 43.5831 23.5ZM38.6324 36.5151L41.5582 39.1197C40.6123 40.183 39.5626 41.1642 38.4444 42.0356L36.0376 38.9454C36.9698 38.2208 37.8432 37.4022 38.6324 36.5151ZM42.3102 30.4599L45.9703 31.8562C45.467 33.1761 44.8364 34.4667 44.0962 35.6887L40.7455 33.6579C41.3643 32.6376 41.8911 31.5625 42.3102 30.4599Z" fill="#CA2020"/>
</g>
<defs>
<clipPath id="clip0_204_2023">
<rect width="47" height="47" fill="white" transform="translate(0.5)"/>
</clipPath>
</defs>
</svg>
