<svg width="48" height="47" viewBox="0 0 48 47" fill="none" xmlns="http://www.w3.org/2000/svg">
<g clip-path="url(#clip0_204_2035)">
<path fill-rule="evenodd" clip-rule="evenodd" d="M29.0898 46.0248C29.6656 46.485 30.3608 46.7239 31.0697 46.7239L31.0677 46.72C31.434 46.72 31.806 46.6534 32.1644 46.5242C33.218 46.1403 33.9778 45.2571 34.1991 44.1585L35.4799 37.8037L41.962 37.6451C43.0821 37.6196 44.0848 37.0223 44.6449 36.0529C45.205 35.0836 45.2187 33.9184 44.6821 32.9353L41.5781 27.2444L46.4407 22.9576C47.2808 22.2173 47.6666 21.1167 47.4727 20.0162C47.2788 18.9136 46.5405 18.0108 45.4967 17.5996L39.4592 15.2339L40.4286 8.82624C40.597 7.71978 40.1857 6.62703 39.328 5.90832C38.4702 5.18765 37.3246 4.97028 36.2652 5.33061L30.1199 7.39665L26.7418 1.86436C25.6001 -0.146846 22.4432 -0.146846 21.3035 1.86828L17.9254 7.40057L11.7801 5.33453C10.7187 4.97224 9.57308 5.19157 8.71729 5.91224C7.85954 6.63095 7.44633 7.72174 7.61475 8.83015L8.58412 15.2378L2.54658 17.6035C1.50475 18.0147 0.766455 18.9175 0.57258 20.0181C0.378705 21.1226 0.762539 22.2212 1.60266 22.9615L6.46521 27.2502L3.36125 32.9412C2.82662 33.9242 2.84033 35.0894 3.40041 36.0588C3.9605 37.0282 4.96316 37.6235 6.08137 37.6509L12.5635 37.8096L13.8442 44.1644C14.0675 45.263 14.8273 46.1482 15.8809 46.53C16.9325 46.9119 18.082 46.7239 18.9574 46.0248L24.0236 41.9808L29.0898 46.0248ZM34.4116 22.4143L35.8259 21.0001L32.9976 18.1716L31.5833 19.5857L24.1032 27.0652L18.4118 21.373L15.5832 24.2013L22.6888 31.3077L24.1029 32.722L25.5172 31.3079L34.4116 22.4143Z" fill="#CA2020"/>
</g>
<defs>
<clipPath id="clip0_204_2035">
<rect width="47" height="47" fill="white" transform="translate(0.5)"/>
</clipPath>
</defs>
</svg>
