<svg width="782" height="783" viewBox="0 0 782 783" fill="none" xmlns="http://www.w3.org/2000/svg">
<path fill-rule="evenodd" clip-rule="evenodd" d="M782 391.5C782 607.719 606.857 783 390.807 783C194.09 783 26.5226 615.842 0 451.25L134.262 489.615C161.604 576.338 231.712 635.752 331.536 657.898C331.536 657.898 307.932 520.412 248.555 462.682C221.024 435.914 178.517 419.211 136.374 408.789L0.201055 369.878C2.60346 325.708 12.3217 283.487 28.1642 244.406C86.2663 101.079 226.742 0 390.807 0C530.81 0 648.59 63.3682 711.943 170.175L589.474 204.619C539.744 151.69 469.133 118.636 390.807 118.636C278.874 118.636 182.695 186.14 140.699 282.689C140.699 282.689 287.645 324.659 390.807 324.659C493.969 324.659 753.45 244.406 753.45 244.406C769.041 282.865 778.701 324.366 781.293 367.773C781.762 375.622 782 383.533 782 391.5ZM533.059 462.682C468.594 514.658 450.079 657.898 450.079 657.898C565.334 632.328 653.151 533.758 662.611 413.149C662.611 413.149 575.235 428.677 533.059 462.682Z" fill="#30373D" fill-opacity="0.05"/>
</svg>
