<svg width="54.000000" height="50.000000" viewBox="0 0 54 50" fill="none" xmlns="http://www.w3.org/2000/svg" xmlns:xlink="http://www.w3.org/1999/xlink">
	<desc>
			Created with Pixso.
	</desc>
	<defs/>
	<path id="Vector 9" d="M43.22 2.86C41.11 -0.25 37.67 -0.55 35.61 0.64C33.81 1.68 32.79 3.07 32.52 4.7C32.25 6.29 32.73 7.97 33.62 9.59C35.39 12.82 38.96 16.09 42.8 18.52C42.93 18.6 43.08 18.64 43.22 18.63C43.36 18.64 43.51 18.6 43.64 18.52C47.48 16.09 51.06 12.82 52.83 9.59C53.71 7.97 54.19 6.29 53.92 4.7C53.65 3.07 52.63 1.68 50.83 0.64C48.77 -0.55 45.33 -0.25 43.22 2.86ZM36.41 49.09C32.87 49.83 22.71 51.38 9.73 47.24L0 47.24L0 27.31L9.73 27.31C14.06 26.57 22.49 21.7 21.63 8.12C24.99 7.87 31.08 10.63 28.48 23.62L39.3 23.62C39.3 23.62 42.18 23.99 42.18 27.31C42.18 30.63 39.3 30.63 39.3 30.63C39.3 30.63 42.9 30.63 42.9 33.96C42.9 37.28 39.3 37.28 39.3 37.28C39.3 37.28 42.18 37.65 42.18 40.6C42.18 43.55 39.3 43.55 39.3 43.55C42.18 46.14 39.66 48.41 36.41 49.09Z" fill="#CA2020" fill-opacity="1.000000" fill-rule="evenodd"/>
</svg>
