<svg width="169" height="42" viewBox="0 0 169 42" fill="none" xmlns="http://www.w3.org/2000/svg">
<path d="M56.4108 38.5512C56.4108 38.9476 56.2991 39.2935 56.0756 39.5891C55.852 39.8846 55.5487 40.1152 55.1655 40.281C54.7903 40.4468 54.3751 40.5297 53.9201 40.5297H49.8846V32.8535H54.1117C54.5109 32.8535 54.8541 32.9508 55.1415 33.1455C55.4369 33.3329 55.6604 33.5779 55.8121 33.8806C55.9718 34.1761 56.0516 34.4861 56.0516 34.8104C56.0516 35.1852 55.9438 35.5384 55.7283 35.8699C55.5207 36.1943 55.2214 36.4357 54.8302 36.5943C55.3172 36.724 55.7003 36.9655 55.9798 37.3187C56.2671 37.6646 56.4108 38.0755 56.4108 38.5512ZM55.3211 38.3782C55.3211 38.1403 55.2613 37.9205 55.1415 37.7187C55.0298 37.5169 54.8741 37.3547 54.6745 37.2322C54.4829 37.1096 54.2594 37.0484 54.0039 37.0484H50.9624V39.6864H53.9201C54.1836 39.6864 54.4191 39.6251 54.6266 39.5026C54.8422 39.38 55.0098 39.2215 55.1296 39.0269C55.2573 38.8251 55.3211 38.6088 55.3211 38.3782ZM50.9624 33.6968V36.2591H53.6686C53.9241 36.2591 54.1476 36.2015 54.3392 36.0862C54.5388 35.9708 54.6945 35.8159 54.8062 35.6213C54.926 35.4267 54.9859 35.214 54.9859 34.9834C54.9859 34.7383 54.93 34.5221 54.8182 34.3347C54.7144 34.1401 54.5667 33.9851 54.3751 33.8698C54.1915 33.7545 53.98 33.6968 53.7405 33.6968H50.9624Z" fill="#30373D"/>
<path d="M57.9184 40.5297V32.8535H58.9962V35.7618H61.0318C61.6545 35.7618 62.1734 35.8627 62.5886 36.0645C63.0037 36.2591 63.315 36.5366 63.5226 36.897C63.7381 37.2502 63.8459 37.6646 63.8459 38.1403C63.8459 38.5872 63.7421 38.9944 63.5345 39.362C63.327 39.7224 63.0196 40.0071 62.6125 40.2161C62.2054 40.4251 61.7024 40.5297 61.1037 40.5297H57.9184ZM58.9962 39.7188H60.96C61.3831 39.7188 61.7264 39.6467 61.9898 39.5026C62.2533 39.3512 62.4449 39.1566 62.5646 38.9188C62.6843 38.6737 62.7442 38.4142 62.7442 38.1403C62.7442 37.8664 62.6883 37.6106 62.5766 37.3727C62.4728 37.1349 62.2892 36.9439 62.0257 36.7997C61.7623 36.6484 61.4031 36.5727 60.948 36.5727H58.9962V39.7188ZM65.2589 40.5297V32.8644H66.3366V40.5297H65.2589Z" fill="#30373D"/>
<path d="M74.1447 39.6647V40.5297H68.3729V32.8535H74.0369V33.7185H69.4506V36.2051H73.4382V37.0159H69.4506V39.6647H74.1447Z" fill="#30373D"/>
<path d="M77.9582 40.6161C77.3435 40.6161 76.7887 40.5008 76.2937 40.2702C75.8068 40.0323 75.4236 39.7044 75.1442 39.2863L75.9704 38.8323C76.17 39.135 76.4374 39.3728 76.7727 39.5458C77.108 39.7116 77.4952 39.7945 77.9343 39.7945C78.517 39.7945 78.9681 39.6647 79.2874 39.4053C79.6147 39.1458 79.7784 38.7998 79.7784 38.3674C79.7784 38.0935 79.7105 37.852 79.5748 37.643C79.4391 37.4268 79.2435 37.261 78.9881 37.1457C78.7326 37.0232 78.4212 36.9619 78.054 36.9619H77.1799V36.1943H78.066C78.3534 36.1943 78.6009 36.1402 78.8084 36.0321C79.024 35.9168 79.1876 35.7654 79.2994 35.578C79.4191 35.3834 79.479 35.1672 79.479 34.9293C79.479 34.6771 79.4151 34.4572 79.2874 34.2698C79.1597 34.0752 78.9761 33.9239 78.7366 33.8158C78.5051 33.7076 78.2257 33.6536 77.8984 33.6536C77.4832 33.6536 77.12 33.7365 76.8087 33.9023C76.4973 34.0608 76.2538 34.2807 76.0782 34.5618L75.2879 34.0752C75.5593 33.6716 75.9146 33.3545 76.3536 33.1238C76.7927 32.886 77.3236 32.7671 77.9463 32.7671C78.4652 32.7671 78.9162 32.8499 79.2994 33.0157C79.6826 33.1815 79.9819 33.4157 80.1975 33.7185C80.413 34.0212 80.5208 34.3816 80.5208 34.7996C80.5208 35.1744 80.417 35.5204 80.2095 35.8375C80.0099 36.1474 79.7105 36.3817 79.3114 36.5402C79.8063 36.6628 80.1895 36.897 80.4609 37.243C80.7324 37.589 80.8681 37.9926 80.8681 38.4539C80.8681 38.9079 80.7403 39.2972 80.4849 39.6215C80.2374 39.9458 79.8941 40.1945 79.4551 40.3675C79.024 40.5333 78.525 40.6161 77.9582 40.6161Z" fill="#30373D"/>
<path d="M81.5965 42V39.6647H81.9797C82.2032 39.6647 82.3988 39.5855 82.5664 39.4269C82.7341 39.2611 82.8778 39.0016 82.9975 38.6485C83.1172 38.2881 83.2131 37.8088 83.2849 37.2105C83.3567 36.6123 83.4086 35.8735 83.4406 34.9942L83.5004 32.8535H88.7693V39.6647H89.8231V42H88.8651V40.5297H82.5544V42H81.5965ZM83.4166 39.6647H87.6916V33.7185H84.4943L84.4584 35.1131C84.4345 36.0213 84.3826 36.7817 84.3027 37.3943C84.2229 38.007 84.1112 38.4971 83.9675 38.8647C83.8238 39.2323 83.6401 39.499 83.4166 39.6647Z" fill="#30373D"/>
<path d="M98.0956 32.8535V40.5297H97.0179V37.0376H92.3358V40.5297H91.2581V32.8535H92.3358V36.1727H97.0179V32.8535H98.0956Z" fill="#30373D"/>
<path d="M103.583 40.5837C102.984 40.5837 102.441 40.4756 101.954 40.2594C101.467 40.0431 101.044 39.7512 100.685 39.3836C100.333 39.0088 100.062 38.5908 99.8704 38.1295C99.6788 37.661 99.583 37.1817 99.583 36.6916C99.583 36.1799 99.6828 35.6933 99.8824 35.2321C100.09 34.7636 100.373 34.3491 100.733 33.9887C101.1 33.6212 101.527 33.3329 102.014 33.1238C102.501 32.9076 103.032 32.7995 103.606 32.7995C104.205 32.7995 104.748 32.9112 105.235 33.1346C105.722 33.3581 106.141 33.6572 106.492 34.032C106.844 34.4068 107.115 34.8248 107.307 35.2861C107.498 35.7474 107.594 36.2195 107.594 36.7024C107.594 37.2142 107.494 37.7043 107.295 38.1728C107.095 38.6341 106.812 39.0485 106.444 39.4161C106.085 39.7765 105.662 40.0612 105.175 40.2702C104.688 40.4792 104.157 40.5837 103.583 40.5837ZM100.673 36.6916C100.673 37.0808 100.741 37.4592 100.876 37.8268C101.02 38.1872 101.22 38.5079 101.475 38.789C101.73 39.0701 102.038 39.2935 102.397 39.4593C102.756 39.6251 103.155 39.708 103.594 39.708C104.05 39.708 104.457 39.6215 104.816 39.4485C105.175 39.2755 105.479 39.0449 105.726 38.7566C105.981 38.4683 106.173 38.1439 106.301 37.7836C106.436 37.4232 106.504 37.0592 106.504 36.6916C106.504 36.3024 106.433 35.9276 106.289 35.5672C106.153 35.2068 105.954 34.8861 105.69 34.605C105.435 34.3167 105.127 34.0933 104.768 33.9347C104.417 33.7689 104.026 33.686 103.594 33.686C103.139 33.686 102.732 33.7725 102.373 33.9455C102.014 34.1113 101.706 34.3383 101.451 34.6266C101.204 34.9149 101.012 35.2393 100.876 35.5996C100.741 35.9528 100.673 36.3168 100.673 36.6916Z" fill="#30373D"/>
<path d="M109.151 40.5297V32.8535H110.229V39.1782L115.151 32.8535H116.156V40.5297H115.079V34.3239L110.217 40.5297H109.151ZM112.66 32.2805C112.245 32.2805 111.894 32.2229 111.606 32.1076C111.319 31.9922 111.103 31.8337 110.959 31.6319C110.816 31.43 110.744 31.2066 110.744 30.9615H111.57C111.57 31.1489 111.646 31.3219 111.798 31.4805C111.957 31.6319 112.245 31.7075 112.66 31.7075C113.059 31.7075 113.338 31.6391 113.498 31.5021C113.658 31.358 113.738 31.1778 113.738 30.9615H114.564C114.564 31.2066 114.492 31.43 114.348 31.6319C114.205 31.8337 113.993 31.9922 113.714 32.1076C113.434 32.2229 113.083 32.2805 112.66 32.2805Z" fill="#30373D"/>
<path d="M120.726 36.6375C120.726 36.169 120.814 35.7114 120.989 35.2645C121.173 34.8104 121.436 34.3996 121.78 34.032C122.131 33.6572 122.558 33.3617 123.061 33.1455C123.564 32.922 124.135 32.8103 124.773 32.8103C125.532 32.8103 126.182 32.9689 126.725 33.286C127.268 33.5959 127.671 33.996 127.935 34.4861L127.084 34.9834C126.917 34.6591 126.701 34.4032 126.438 34.2158C126.182 34.0212 125.903 33.8842 125.599 33.805C125.304 33.7257 125.013 33.686 124.725 33.686C124.254 33.686 123.835 33.7725 123.468 33.9455C123.109 34.1185 122.805 34.3491 122.558 34.6374C122.31 34.9257 122.123 35.2501 121.995 35.6105C121.875 35.9636 121.815 36.3204 121.815 36.6808C121.815 37.0772 121.887 37.4592 122.031 37.8268C122.183 38.1944 122.39 38.5187 122.654 38.7998C122.917 39.0809 123.228 39.3044 123.588 39.4701C123.947 39.6359 124.338 39.7188 124.761 39.7188C125.057 39.7188 125.36 39.672 125.671 39.5783C125.983 39.4846 126.274 39.3404 126.545 39.1458C126.817 38.944 127.032 38.6845 127.192 38.3674L128.09 38.8106C127.915 39.1926 127.643 39.517 127.276 39.7837C126.909 40.0504 126.498 40.2522 126.043 40.3891C125.595 40.5261 125.152 40.5945 124.713 40.5945C124.131 40.5945 123.596 40.4828 123.109 40.2594C122.622 40.0287 122.199 39.726 121.839 39.3512C121.488 38.9692 121.213 38.544 121.013 38.0755C120.822 37.5998 120.726 37.1205 120.726 36.6375Z" fill="#30373D"/>
<path d="M135.211 39.6647V40.5297H129.439V32.8535H135.103V33.7185H130.517V36.2051H134.504V37.0159H130.517V39.6647H135.211Z" fill="#30373D"/>
<path d="M136.689 40.5297V32.8535H140.234C140.609 32.8535 140.952 32.9256 141.264 33.0698C141.575 33.2067 141.846 33.3941 142.078 33.632C142.309 33.8626 142.489 34.1257 142.617 34.4212C142.745 34.7095 142.808 35.005 142.808 35.3077C142.808 35.7258 142.705 36.1258 142.497 36.5078C142.289 36.8826 141.998 37.1889 141.623 37.4268C141.248 37.6574 140.809 37.7727 140.306 37.7727H137.767V40.5297H136.689ZM137.767 36.9078H140.246C140.541 36.9078 140.797 36.8358 141.012 36.6916C141.236 36.5474 141.407 36.3528 141.527 36.1078C141.655 35.8627 141.719 35.596 141.719 35.3077C141.719 35.005 141.647 34.7347 141.503 34.4969C141.359 34.2518 141.172 34.0608 140.94 33.9239C140.709 33.7869 140.453 33.7185 140.174 33.7185H137.767V36.9078Z" fill="#30373D"/>
<path d="M150.676 38.5512C150.676 38.9476 150.565 39.2935 150.341 39.5891C150.117 39.8846 149.814 40.1152 149.431 40.281C149.056 40.4468 148.641 40.5297 148.186 40.5297H144.15V32.8535H148.377C148.776 32.8535 149.12 32.9508 149.407 33.1455C149.702 33.3329 149.926 33.5779 150.078 33.8806C150.237 34.1761 150.317 34.4861 150.317 34.8104C150.317 35.1852 150.209 35.5384 149.994 35.8699C149.786 36.1943 149.487 36.4357 149.096 36.5943C149.583 36.724 149.966 36.9655 150.245 37.3187C150.533 37.6646 150.676 38.0755 150.676 38.5512ZM149.587 38.3782C149.587 38.1403 149.527 37.9205 149.407 37.7187C149.295 37.5169 149.14 37.3547 148.94 37.2322C148.748 37.1096 148.525 37.0484 148.269 37.0484H145.228V39.6864H148.186C148.449 39.6864 148.684 39.6251 148.892 39.5026C149.108 39.38 149.275 39.2215 149.395 39.0269C149.523 38.8251 149.587 38.6088 149.587 38.3782ZM145.228 33.6968V36.2591H147.934C148.19 36.2591 148.413 36.2015 148.605 36.0862C148.804 35.9708 148.96 35.8159 149.072 35.6213C149.191 35.4267 149.251 35.214 149.251 34.9834C149.251 34.7383 149.195 34.5221 149.084 34.3347C148.98 34.1401 148.832 33.9851 148.641 33.8698C148.457 33.7545 148.245 33.6968 148.006 33.6968H145.228Z" fill="#30373D"/>
<path d="M152.244 40.5297V32.8535H153.321V39.1782L158.243 32.8535H159.249V40.5297H158.171V34.3239L153.309 40.5297H152.244Z" fill="#30373D"/>
<path d="M160.789 36.6375C160.789 36.169 160.877 35.7114 161.053 35.2645C161.236 34.8104 161.5 34.3996 161.843 34.032C162.194 33.6572 162.622 33.3617 163.125 33.1455C163.627 32.922 164.198 32.8103 164.837 32.8103C165.595 32.8103 166.246 32.9689 166.789 33.286C167.332 33.5959 167.735 33.996 167.998 34.4861L167.148 34.9834C166.98 34.6591 166.765 34.4032 166.501 34.2158C166.246 34.0212 165.967 33.8842 165.663 33.805C165.368 33.7257 165.076 33.686 164.789 33.686C164.318 33.686 163.899 33.7725 163.532 33.9455C163.172 34.1185 162.869 34.3491 162.622 34.6374C162.374 34.9257 162.186 35.2501 162.059 35.6105C161.939 35.9636 161.879 36.3204 161.879 36.6808C161.879 37.0772 161.951 37.4592 162.095 37.8268C162.246 38.1944 162.454 38.5187 162.717 38.7998C162.981 39.0809 163.292 39.3044 163.651 39.4701C164.011 39.6359 164.402 39.7188 164.825 39.7188C165.12 39.7188 165.424 39.672 165.735 39.5783C166.046 39.4846 166.338 39.3404 166.609 39.1458C166.881 38.944 167.096 38.6845 167.256 38.3674L168.154 38.8106C167.978 39.1926 167.707 39.517 167.34 39.7837C166.972 40.0504 166.561 40.2522 166.106 40.3891C165.659 40.5261 165.216 40.5945 164.777 40.5945C164.194 40.5945 163.659 40.4828 163.172 40.2594C162.685 40.0287 162.262 39.726 161.903 39.3512C161.552 38.9692 161.276 38.544 161.077 38.0755C160.885 37.5998 160.789 37.1205 160.789 36.6375Z" fill="#30373D"/>
<path fill-rule="evenodd" clip-rule="evenodd" d="M40.9798 20.5C40.9798 31.8218 31.8016 41 20.4798 41C10.1711 41 1.38989 32.2472 0 23.6287L7.03585 25.6376C8.46868 30.1786 12.1426 33.2897 17.3737 34.4493C17.3737 34.4493 16.1368 27.2502 13.0253 24.2273C11.5825 22.8256 9.35497 21.951 7.1465 21.4053L0.0105361 19.3678C0.136431 17.055 0.645705 14.8441 1.47591 12.7978C4.52068 5.29275 11.8821 0 20.4798 0C27.8165 0 33.9886 3.31813 37.3086 8.91082L30.8907 10.7144C28.2847 7.94289 24.5843 6.21212 20.4798 6.21212C14.6141 6.21212 9.57394 9.7468 7.37316 14.8024C7.37316 14.8024 15.0737 17 20.4798 17C25.8859 17 39.4837 12.7978 39.4837 12.7978C40.3007 14.8116 40.8069 16.9847 40.9428 19.2576C40.9673 19.6686 40.9798 20.0828 40.9798 20.5ZM27.9343 24.2273C24.5561 26.9489 23.5859 34.4493 23.5859 34.4493C29.6256 33.1104 34.2276 27.949 34.7234 21.6336C34.7234 21.6336 30.1445 22.4467 27.9343 24.2273Z" fill="#CA2020"/>
<path d="M60.111 1.27057H61.2628L71.559 25.1485H68.5225L65.2417 17.674H56.1322L52.9211 25.1485H49.8846L60.111 1.27057ZM61.1581 7.93339L60.8789 7.05403L60.6695 6.27614L60.4251 7.02021L60.1459 7.93339L57.2141 15.1712H64.1248L61.1581 7.93339Z" fill="#30373D"/>
<path d="M76.8524 25.6896C76.2009 25.6896 75.5727 25.5431 74.9677 25.25C74.3627 24.9794 73.8741 24.6073 73.5018 24.1338L75.561 22.5104C75.8402 22.8712 76.2474 23.0516 76.7826 23.0516C77.3178 23.0516 77.7017 22.8712 77.9344 22.5104C78.1903 22.1271 78.423 21.5409 78.6324 20.7517C79.0047 19.2636 79.2839 17.223 79.4701 14.63C79.726 11.1577 79.854 6.94129 79.854 1.98082H94.4432V25.1485H91.5812V4.55125H82.5066C82.4833 7.30206 82.3903 10.1656 82.2274 13.1419C82.0645 16.1182 81.8085 18.5759 81.4595 20.515C81.157 22.2962 80.5753 23.604 79.7144 24.4382C78.8767 25.2725 77.9227 25.6896 76.8524 25.6896Z" fill="#30373D"/>
<path d="M108.322 11.5523C109.835 11.5523 111.231 11.8567 112.511 12.4655C113.79 13.0517 114.803 13.886 115.547 14.9682C116.315 16.028 116.699 17.2568 116.699 18.6548C116.699 20.0753 116.28 21.3718 115.442 22.5442C114.605 23.6942 113.418 24.5059 111.882 24.9794C110.882 25.295 109.521 25.4529 107.799 25.4529C105.844 25.4529 104.355 25.3965 103.331 25.2838L101.202 25.047V2.01464H104.064V11.5523H108.322ZM108.148 22.8825C109.939 22.8825 111.336 22.5217 112.336 21.8002C113.337 21.0786 113.837 20.0302 113.837 18.6548C113.837 17.3245 113.383 16.2422 112.476 15.4079C111.568 14.5511 110.277 14.1227 108.602 14.1227H104.064V22.7133L105.879 22.8148C106.763 22.8599 107.52 22.8825 108.148 22.8825Z" fill="#30373D"/>
<path d="M131.008 24.1677C128.635 23.9873 126.611 23.3898 124.935 22.3751C123.283 21.3379 122.027 20.0415 121.166 18.4857C120.328 16.9299 119.909 15.2952 119.909 13.5816C119.909 11.8679 120.328 10.2445 121.166 8.71128C122.027 7.1555 123.283 5.87028 124.935 4.85564C126.611 3.81845 128.635 3.20967 131.008 3.02928V1H133.661V3.02928C136.034 3.20967 138.059 3.81845 139.734 4.85564C141.409 5.87028 142.666 7.1555 143.503 8.71128C144.364 10.2445 144.795 11.8679 144.795 13.5816C144.795 15.2952 144.364 16.9299 143.503 18.4857C142.666 20.0415 141.409 21.3379 139.734 22.3751C138.059 23.3898 136.034 23.9873 133.661 24.1677V26.2308H131.008V24.1677ZM131.008 5.63353C129.217 5.79137 127.681 6.26487 126.401 7.05403C125.121 7.82065 124.156 8.77892 123.504 9.92885C122.876 11.0788 122.562 12.2964 122.562 13.5816C122.562 14.8668 122.876 16.0843 123.504 17.2343C124.156 18.3842 125.121 19.3538 126.401 20.1429C127.681 20.9095 129.217 21.383 131.008 21.5634V5.63353ZM133.661 21.5634C135.476 21.383 137.023 20.9095 138.303 20.1429C139.583 19.3538 140.537 18.3842 141.165 17.2343C141.816 16.0843 142.142 14.8668 142.142 13.5816C142.142 12.2964 141.816 11.0788 141.165 9.92885C140.537 8.77892 139.583 7.82065 138.303 7.05403C137.023 6.26487 135.476 5.79137 133.661 5.63353V21.5634Z" fill="#30373D"/>
<path d="M156.706 1.27057H157.858L168.154 25.1485H165.117L161.837 17.674H152.727L149.516 25.1485H146.48L156.706 1.27057ZM157.753 7.93339L157.474 7.05403L157.264 6.27614L157.02 7.02021L156.741 7.93339L153.809 15.1712H160.72L157.753 7.93339Z" fill="#30373D"/>
</svg>
